<svg aria-hidden="true" width="96px" height="32px" viewBox="0 0 80 24" transform="rotate(0)" class="Icon-sc-1ny8wc9-0 jrHPSb"><path d="M15.5 8.6C14.9 5.9 13.2 4 10 4h-.1-.1C6.3 4 3.6 5.8 2.2 8.6 1.4 10 1 11.7 1 13.5c0 3.5 1.9 5.7 4.4 6.3.5.1 1 .2 1.5.2.6 0 1.1-.1 1.6-.2 1-.3 1.8-.8 2.5-1.5v1.5c0 .1.1.1.1.1h2.2l.1-.1 1.5-7.6c0-.1-.1-.2-.2-.2H9.3c-.1 0-.1.1-.2.1l-.4 2v.1c0 .1.1.1.1.1h2.7c-.6 1.6-1.9 3-4.1 3s-3.5-1.6-3.5-4.2c0-1.7.6-3.4 1.5-4.5s2.3-1.9 3.9-1.9c1.5 0 2.4.7 3 1.9.1.3.3.6.4 1 0 .1.1.1.1.1l2.6-.7.1-.1v-.3zm5.9-4.4c0-.1-.1-.2-.2-.2h-2.5c-.1 0-.1.1-.2.1l-3 15.5v.1c0 .1.1.1.1.1h2.6l.1-.1zm7.4 12.2c-.6.8-1.4 1.2-2.5 1.2-1.3 0-2.2-1.1-2.2-2.8 0-1.2.3-2.1.8-2.9.6-.8 1.4-1.2 2.5-1.2 1.3 0 2.2 1.1 2.2 2.8 0 1.3-.3 2.2-.8 2.9zm.3-7.8c-.5-.1-.9-.2-1.5-.2s-1.2.1-1.8.2c-1 .2-1.9.7-2.8 1.6-1.3 1.3-1.9 2.9-1.9 5.1s1.3 4 3.4 4.6c.5 0 1 .1 1.5.1.6 0 1.2-.1 1.8-.2 1-.2 1.9-.7 2.8-1.6 1.3-1.3 1.9-2.9 1.9-5.1.1-2.2-1.2-4-3.4-4.5zm12.7 1.6c-.4-.7-1.2-1.3-2.2-1.6-.4-.1-.8-.2-1.2-.2-.5 0-1 .1-1.4.2-1.6.4-2.5 1.6-2.5 3.3 0 1.5 1 2.4 2.3 3s1.9 1 1.9 1.7c0 .8-.7 1.2-1.4 1.2-1.1 0-1.8-.6-2.1-1.8 0-.1-.1-.1-.2-.1h-.1l-2.1.9c-.1 0-.1.1-.1.1.3 1.1 1.2 2.5 2.9 3 .4.1.8.2 1.3.2.6 0 1.1-.1 1.6-.2 1.7-.4 2.8-1.6 2.8-3.7 0-1.6-1.2-2.3-2.3-2.9-.8-.4-1.9-.7-1.9-1.5 0-.6.5-1 1.1-1s1.2.3 1.6.8l.1.1h.1l1.7-1.2c.1-.2.1-.2.1-.3zm7-1.6c-.4-.1-.8-.2-1.2-.2-.5 0-1 .1-1.4.2-1.6.4-2.5 1.6-2.5 3.3 0 1.5 1 2.4 2.3 3s1.9 1 1.9 1.7c0 .8-.7 1.2-1.4 1.2-1.1 0-1.8-.7-2.1-1.8 0-.1-.1-.1-.1-.1h-.1l-2.2.7c-.1 0-.1.1-.1.1.3 1.1 1.2 2.5 2.9 3 .4.1.8.2 1.3.2.6 0 1.1-.1 1.6-.2 1.7-.4 2.8-1.6 2.8-3.7 0-1.6-1.2-2.3-2.3-2.9-.8-.4-1.9-.7-1.9-1.5 0-.6.5-1 1.1-1s1.2.3 1.6.8l.1.1h.1l1.8-1.3.1-.1V10c-.5-.6-1.3-1.2-2.3-1.4zm7.2 0h-2.5c-.1 0-.1 0-.2.1l-2.1 10.9v.1c0 .1.1.1.1.1h2.6l.1-.1 2.1-11c.1-.1 0-.1-.1-.1zm3.9 4.3c.5-1.2 1.6-2.1 3-2.1s2.1.7 2.1 2.1zm4.8-4.3c-.4-.1-.9-.2-1.4-.2-.6 0-1.1.1-1.6.2-3.1.7-5.1 3.5-5.1 6.5 0 2.6 1.4 4.3 3.4 4.8.4.1.9.2 1.4.2.6 0 1.2-.1 1.7-.2 1.6-.4 2.7-1.3 3.8-2.8V17c0-.1 0-.1-.1-.1l-1.9-1h-.1c-.1 0-.1 0-.1.1-.8 1.2-1.7 1.8-3 1.8-1.5 0-2.3-1-2.3-2.2v-.4h8.1l.1-.1c.1-.3.3-1.1.3-2.1-.1-2.2-1.2-3.9-3.2-4.4zm12.1 2.5h.2s.1 0 .1-.1l.8-2.2v-.1c0-.1 0-.1-.1-.1s-.1 0-.2-.1c-.3-.1-.6-.2-1.2-.2-.4 0-.8.1-1.2.2-.8.3-1.6.8-2.3 1.7l.3-1.5c0-.1-.1-.2-.2-.2h-2.5c-.1 0-.1.1-.2.1l-2.1 10.9v.1c0 .1.1.1.1.1h2.6l.1-.1.8-3.9c.7-3.5 2.6-5 4-5 .4.2.7.2 1 .4zM55.3 4.2c-.9 0-1.6.7-1.6 1.6s.7 1.6 1.6 1.6 1.6-.7 1.6-1.6-.7-1.6-1.6-1.6zm21.6 12.6c-.9 0-1.6.7-1.6 1.6 0 .6.3 1.1.8 1.4.2.1.5.2.8.2s.6-.1.8-.2c.5-.3.8-.8.8-1.4 0-.9-.7-1.6-1.6-1.6z" fill="#1a1919"></path></svg>