<svg aria-hidden="true" width="42px" height="42px" fill="strokeColor" viewBox="0 0 24 32" transform="rotate(0)" class="Icon-sc-1ny8wc9-0 kpBKNH"><path d="M23.84 17.4l-.003-7.886c0-1.01-.827-.955-1.37-.638-1.899 1.1-5.596 3.306-6.105 3.548-.38.18-.646.488-.646.949 0 1.148.168 2.686.168 3.98 0 1.97-.313 3.493-1.782 4.305-.89.488-2.377.368-3.723-.982-4.447-4.467-1.313-15.168 9.983-16.798.241-.033.435-.067.593-.093.263-.04.465-.228.465-.502 0-.23-.16-.404-.366-.484l-.346-.134c-.598-.22-5.362-1.922-6.965-2.519C13.14-.079 12.354.01 12.09.063-1.907 3.1-3.713 19.978 6.477 26.619c.108.07.559.343 1.055.055 1.386-.8 5.416-3.193 7.076-4.099 3.566-1.946 6.206-1.657 7.502.112.882 1.208.805 2.897.023 3.93-.944 1.248-2.7 1.405-3.612.375-.674-.762-1.839-1.387-3.034-1.154-1.283.245-2.404 1.134-2.549 2.549-.168 1.672.987 3.134 2.709 3.49 3.842.8 8.207-2.384 8.207-7.633l-.003-1.934c-.005-1.433-.01-3.174-.01-4.91z" fill-rule="evenodd"></path></svg>