<svg aria-hidden="true" width="18px" height="18px" viewBox="0 0 14 14" transform="rotate(0)" class="Icon-sc-1ny8wc9-0 qKTfw"><g fill="none" fill-rule="evenodd"><g fill-rule="nonzero"><path d="M13.72 7.16c0-.497-.045-.975-.127-1.433H7v2.708h3.767a3.22 3.22 0 01-1.397 2.113v1.756h2.263c1.323-1.219 2.087-3.013 2.087-5.145z" fill="#4285f4"></path><path d="M7 14c1.89 0 3.475-.627 4.633-1.696L9.37 10.548c-.626.42-1.428.668-2.37.668-1.823 0-3.366-1.231-3.917-2.886H.745v1.814A6.997 6.997 0 007 14z" fill="#34a853"></path><path d="M3.083 8.33c-.14-.42-.22-.869-.22-1.33s.08-.91.22-1.33V3.856H.745a6.997 6.997 0 000 6.288z" fill="#fbbc05"></path><path d="M7 2.784c1.028 0 1.95.353 2.676 1.047l2.008-2.008C10.47.693 8.887 0 7 0A6.997 6.997 0 00.745 3.856L3.083 5.67C3.633 4.015 5.177 2.784 7 2.784z" fill="#ea4335"></path></g><path d="M0 0h14v14H0z"></path></g></svg>